# xmcd
#
# Track frame offsets:
#	150
#	13847
#	29202
#	46426
#	61252
#	76662
#	90170
#	109457
#	124999
#	143909
#	157788
#	175407
#
# Disc length: 2577 seconds
#
# Revision: 2
# Processed by: cddbd v1.5.1PL2 Copyright (c) Steve Scherf et al.
# Submitted via: EZCDDA 4.3.2
#
DISCID=9b0a0f0c
DTITLE=Sanda Ladoºi - Khalini
DYEAR=1900
DGENRE=
TTITLE0=Khalini
TTITLE1=Oare ºtii
TTITLE2=Þi-e teamã sã zbori
TTITLE3=Nu mã opri
TTITLE4=I Admit
TTITLE5=Un sunet în noapte
TTITLE6=Repede
TTITLE7=Totul e perfect
TTITLE8=Când vine seara
TTITLE9=O noapte cu tine
TTITLE10=Nu mã opri (remix club)
TTITLE11=Khalini (remix club)
EXTD=
EXTT0=
EXTT1=
EXTT2=
EXTT3=
EXTT4=
EXTT5=
EXTT6=
EXTT7=
EXTT8=
EXTT9=
EXTT10=
EXTT11=
PLAYORDER=
